<svg width="715" height="857" viewBox="0 0 715 857" fill="none" xmlns="http://www.w3.org/2000/svg">
<path d="M620.768 518.097C562.166 533.822 508.731 564.686 465.828 607.592C422.924 650.498 392.061 703.936 376.337 762.541C317.624 778.337 255.784 778.382 197.048 762.671C138.311 746.961 84.7511 716.05 41.7615 673.052C-1.22804 630.053 -32.1291 576.485 -47.8295 517.743C-63.5299 459.001 -63.4753 397.158 -47.6712 338.444C10.9428 322.744 64.3905 291.887 107.298 248.978C150.205 206.068 181.06 152.617 196.759 94.0002C255.471 78.2257 317.301 78.196 376.028 93.9141C434.754 109.632 488.305 140.543 531.289 183.536C574.273 226.529 605.174 280.087 620.882 338.819C636.59 397.551 636.551 459.385 620.768 518.097ZM589.491 125.541C521.785 57.8155 433.344 14.7239 338.285 3.14446C243.225 -8.43499 147.026 12.1652 65.0433 61.657C-16.9398 111.149 -79.9815 186.679 -114.02 276.193C-148.058 365.706 -151.13 464.043 -122.746 555.507C-94.3622 646.971 -36.1584 726.29 42.5753 780.804C121.309 835.317 216.034 861.883 311.631 856.261C407.228 850.638 498.187 813.152 569.988 749.786C641.79 686.419 690.296 600.824 707.764 506.664C720.497 438.307 716.381 367.878 695.773 301.47C675.165 235.063 638.685 174.678 589.491 125.541Z" fill="white"/>
<path d="M260.195 529.053C255.473 511.403 246.189 495.307 233.274 482.383C220.359 469.458 204.269 460.16 186.622 455.424C181.87 437.75 181.858 419.135 186.586 401.455C191.314 383.774 200.616 367.65 213.556 354.705C226.496 341.76 242.617 332.451 260.298 327.715C277.979 322.978 296.596 322.981 314.275 327.722C318.976 345.428 328.256 361.585 341.182 374.567C354.109 387.55 370.226 396.9 387.914 401.679C392.671 419.36 392.684 437.983 387.954 455.671C383.223 473.359 373.914 489.489 360.965 502.436C348.017 515.383 331.885 524.691 314.194 529.421C296.503 534.151 277.878 534.137 260.195 529.381M460.305 460.74C468.131 419.367 460.856 376.559 439.803 340.092C418.75 303.625 385.315 275.917 345.57 262C305.824 248.083 262.405 248.88 223.197 264.246C183.99 279.613 151.594 308.529 131.894 345.744C112.194 382.959 106.496 426.005 115.835 467.063C125.174 508.121 148.931 544.468 182.79 569.504C216.65 594.54 258.367 606.603 300.365 603.503C342.363 600.404 381.856 582.347 411.672 552.611C436.781 527.594 453.734 495.568 460.305 460.74Z" fill="white"/>
</svg>
