<svg width="18" height="18" viewBox="0 0 18 18" fill="none" xmlns="http://www.w3.org/2000/svg">
<path d="M16.5522 0.000293112H1.33497C0.614988 -0.0147066 0.0149997 0.547782 0 1.27527C0 1.28277 0 1.29777 0 1.30527V16.7025C0 17.4224 0.584988 17.9999 1.30497 17.9999C1.31247 17.9999 1.32747 17.9999 1.33497 17.9999H16.5522C17.2796 18.0074 17.8721 17.4224 17.8871 16.695V1.30527C17.8646 0.577781 17.2722 0.00779296 16.5522 0.000293112ZM5.42239 15.0375H2.70745V6.93765H5.42239V15.0375ZM4.04992 5.82018C3.28493 5.88767 2.60245 5.31769 2.53495 4.5527C2.52745 4.5077 2.52745 4.4552 2.52745 4.4102C2.52745 3.63022 3.16494 2.99273 3.95242 3.00023C3.98242 3.00023 4.01992 3.00023 4.04992 3.00023C4.8299 2.94773 5.50489 3.53272 5.56489 4.31271C5.56489 4.34271 5.56489 4.3727 5.56489 4.4102C5.59489 5.16019 5.0174 5.79768 4.26741 5.82768C4.19242 5.82768 4.12492 5.82768 4.04992 5.82018ZM15.1497 15.0375H12.4347V10.7026C12.4347 9.6151 12.0373 8.85761 11.0623 8.85761C10.4398 8.85761 9.8923 9.24761 9.6898 9.83259C9.62231 10.0426 9.59981 10.2601 9.61481 10.4851V15H6.89986C6.89986 15 6.93736 7.62764 6.89986 6.87015H9.60731V8.02513C10.1098 7.17015 11.0398 6.66016 12.0298 6.69016C13.7997 6.69016 15.1422 7.84513 15.1422 10.3426L15.1497 15.0375Z" fill="#91A4EE"/>
<path d="M16.5522 0.000293112H1.33497C0.614988 -0.0147066 0.0149997 0.547782 0 1.27527C0 1.28277 0 1.29777 0 1.30527V16.7025C0 17.4224 0.584988 17.9999 1.30497 17.9999C1.31247 17.9999 1.32747 17.9999 1.33497 17.9999H16.5522C17.2796 18.0074 17.8721 17.4224 17.8871 16.695V1.30527C17.8646 0.577781 17.2722 0.00779296 16.5522 0.000293112ZM5.42239 15.0375H2.70745V6.93765H5.42239V15.0375ZM4.04992 5.82018C3.28493 5.88767 2.60245 5.31769 2.53495 4.5527C2.52745 4.5077 2.52745 4.4552 2.52745 4.4102C2.52745 3.63022 3.16494 2.99273 3.95242 3.00023C3.98242 3.00023 4.01992 3.00023 4.04992 3.00023C4.8299 2.94773 5.50489 3.53272 5.56489 4.31271C5.56489 4.34271 5.56489 4.3727 5.56489 4.4102C5.59489 5.16019 5.0174 5.79768 4.26741 5.82768C4.19242 5.82768 4.12492 5.82768 4.04992 5.82018ZM15.1497 15.0375H12.4347V10.7026C12.4347 9.6151 12.0373 8.85761 11.0623 8.85761C10.4398 8.85761 9.8923 9.24761 9.6898 9.83259C9.62231 10.0426 9.59981 10.2601 9.61481 10.4851V15H6.89986C6.89986 15 6.93736 7.62764 6.89986 6.87015H9.60731V8.02513C10.1098 7.17015 11.0398 6.66016 12.0298 6.69016C13.7997 6.69016 15.1422 7.84513 15.1422 10.3426L15.1497 15.0375Z" fill="black" fill-opacity="0.2"/>
</svg>
