<svg width="24" height="20" viewBox="0 0 24 20" fill="none" xmlns="http://www.w3.org/2000/svg">
<path d="M0 0H2.42491V2.32526H0V0ZM0 2.87336H2.42491V5.19862H0V2.87336ZM0 5.73841H2.42491V8.06367H0V5.73841ZM0 8.60346H2.42491V10.9287H0V8.60346ZM0 11.4768H2.42491V13.8021H0V11.4768ZM0 14.3419H2.42491V16.6671H0V14.3419ZM0 17.2152H2.42491V19.5405H0V17.2152ZM3.08097 0H5.50588V2.32526H3.08097V0ZM3.08097 2.87336H5.50588V5.19862H3.08097V2.87336ZM3.08097 5.73841H5.50588V8.06367H3.08097V5.73841ZM3.08097 8.60346H5.50588V10.9287H3.08097V8.60346ZM3.08097 11.4768H5.50588V13.8021H3.08097V11.4768ZM3.08097 14.3419H5.50588V16.6671H3.08097V14.3419ZM3.08097 17.2152H5.50588V19.5405H3.08097V17.2152ZM6.17024 2.87336H8.59516V5.19862H6.17024V2.87336ZM6.17024 5.73841H8.59516V8.06367H6.17024V5.73841ZM6.17024 8.60346H8.59516V10.9287H6.17024V8.60346ZM6.17024 11.4768H8.59516V13.8021H6.17024V11.4768ZM9.25121 5.73841H11.6761V8.06367H9.25121V5.73841ZM9.25121 8.60346H11.6761V10.9287H9.25121V8.60346ZM9.25121 11.4768H11.6761V13.8021H9.25121V11.4768ZM9.25121 14.3419H11.6761V16.6671H9.25121V14.3419ZM12.3322 5.73841H14.7571V8.06367H12.3322V5.73841ZM12.3322 8.60346H14.7571V10.9287H12.3322V8.60346ZM12.3322 11.4768H14.7571V13.8021H12.3322V11.4768ZM12.3322 14.3419H14.7571V16.6671H12.3322V14.3419ZM15.4132 2.87336H17.8381V5.19862H15.4132V2.87336ZM15.4132 5.73841H17.8381V8.06367H15.4132V5.73841ZM15.4132 8.60346H17.8381V10.9287H15.4132V8.60346ZM15.4132 11.4768H17.8381V13.8021H15.4132V11.4768ZM18.4941 0H20.919V2.32526H18.4941V0ZM18.4941 2.87336H20.919V5.19862H18.4941V2.87336ZM18.4941 5.73841H20.919V8.06367H18.4941V5.73841ZM18.4941 8.60346H20.919V10.9287H18.4941V8.60346ZM18.4941 11.4768H20.919V13.8021H18.4941V11.4768ZM18.4941 14.3419H20.919V16.6671H18.4941V14.3419ZM18.4941 17.2152H20.919V19.5405H18.4941V17.2152ZM21.5751 0H24V2.32526H21.5751V0ZM21.5751 2.87336H24V5.19862H21.5751V2.87336ZM21.5751 5.73841H24V8.06367H21.5751V5.73841ZM21.5751 8.60346H24V10.9287H21.5751V8.60346ZM21.5751 11.4768H24V13.8021H21.5751V11.4768ZM21.5751 14.3419H24V16.6671H21.5751V14.3419ZM21.5751 17.2152H24V19.5405H21.5751V17.2152Z" fill="#F5F4F4"/>
</svg>
