<svg width="24" height="25" viewBox="0 0 24 25" fill="none" xmlns="http://www.w3.org/2000/svg">
<path d="M20.9638 16.9765V19.6862C20.9648 19.9377 20.9133 20.1867 20.8125 20.4172C20.7117 20.6477 20.5639 20.8546 20.3786 21.0247C20.1932 21.1947 19.9743 21.3242 19.736 21.4048C19.4978 21.4854 19.2452 21.5153 18.9947 21.4927C16.2153 21.1907 13.5455 20.2409 11.1997 18.7197C9.01735 17.3329 7.16706 15.4827 5.78028 13.3003C4.25379 10.9439 3.30381 8.26107 3.00733 5.46915C2.98476 5.21938 3.01444 4.96764 3.09449 4.72996C3.17454 4.49229 3.30321 4.27389 3.47229 4.08866C3.64137 3.90343 3.84717 3.75544 4.07658 3.65411C4.30599 3.55278 4.55399 3.50032 4.80478 3.50009H7.51451C7.95286 3.49577 8.37782 3.651 8.71019 3.93683C9.04255 4.22267 9.25964 4.61961 9.32099 5.05366C9.43536 5.92084 9.64747 6.77229 9.95326 7.59177C10.0748 7.91507 10.1011 8.26642 10.0291 8.6042C9.95701 8.94198 9.78965 9.25203 9.5468 9.49761L8.39969 10.6447C9.6855 12.906 11.5578 14.7784 13.8191 16.0642L14.9663 14.9171C15.2118 14.6742 15.5219 14.5069 15.8597 14.4348C16.1975 14.3628 16.5488 14.3891 16.8721 14.5106C17.6916 14.8164 18.543 15.0285 19.4102 15.1429C19.849 15.2048 20.2497 15.4258 20.5361 15.7639C20.8226 16.1019 20.9748 16.5335 20.9638 16.9765Z" stroke="#D70C38" stroke-width="2" stroke-linecap="round" stroke-linejoin="round"/>
</svg>
