<svg width="16" height="16" viewBox="0 0 16 16" fill="none" xmlns="http://www.w3.org/2000/svg">
<path d="M14.2407 9.67276C13.1466 9.96634 12.149 10.5426 11.348 11.3436C10.547 12.1447 9.9708 13.1423 9.67724 14.2365C8.58107 14.5314 7.42655 14.5322 6.32995 14.2389C5.23335 13.9456 4.23339 13.3685 3.43079 12.5657C2.62818 11.7629 2.05127 10.7629 1.75814 9.66615C1.46502 8.56944 1.46604 7.41486 1.7611 6.31867C2.85541 6.02555 3.85327 5.44947 4.65434 4.64836C5.45541 3.84724 6.03146 2.84933 6.32456 1.75496C7.42069 1.46046 8.57505 1.4599 9.67146 1.75335C10.7679 2.04681 11.7676 2.62391 12.5701 3.42658C13.3727 4.22925 13.9496 5.22916 14.2428 6.32568C14.5361 7.42219 14.5354 8.57662 14.2407 9.67276ZM13.6568 2.34383C12.3927 1.0794 10.7415 0.274892 8.96681 0.0587064C7.19206 -0.157479 5.39606 0.227122 3.86545 1.15112C2.33485 2.07512 1.15787 3.48526 0.522389 5.15646C-0.113093 6.82766 -0.170452 8.66358 0.359468 10.3712C0.889388 12.0788 1.97604 13.5597 3.44598 14.5774C4.91592 15.5952 6.68442 16.0912 8.46919 15.9862C10.254 15.8812 11.9521 15.1814 13.2927 13.9983C14.6332 12.8153 15.5388 11.2173 15.8649 9.45929C16.1026 8.1831 16.0258 6.8682 15.641 5.62839C15.2563 4.38857 14.5752 3.2612 13.6568 2.34383Z" fill="#D70C38"/>
<path d="M7.46856 9.96837C7.37656 9.62442 7.19565 9.31074 6.94401 9.05887C6.69236 8.807 6.37885 8.62581 6.03498 8.53351C5.94239 8.18907 5.94215 7.82632 6.03428 7.48176C6.12641 7.1372 6.30766 6.82298 6.5598 6.57072C6.81193 6.31845 7.12606 6.13704 7.47057 6.04473C7.81508 5.95243 8.17783 5.95248 8.52232 6.04489C8.61391 6.38994 8.79474 6.70479 9.04661 6.95779C9.29849 7.21079 9.61253 7.39301 9.95717 7.48614C10.0499 7.83071 10.0501 8.19362 9.95795 8.53833C9.86577 8.88303 9.68439 9.19736 9.43208 9.44967C9.17978 9.70198 8.86544 9.88336 8.52074 9.97554C8.17603 10.0677 7.81312 10.0675 7.46856 9.97476M11.3677 8.6371C11.5202 7.83083 11.3785 6.99661 10.9683 6.28595C10.558 5.57529 9.90654 5.03532 9.1321 4.7641C8.35766 4.49289 7.51163 4.50842 6.74766 4.80788C5.98369 5.10733 5.35246 5.67085 4.9686 6.39609C4.58474 7.12133 4.47372 7.96019 4.65569 8.76032C4.83766 9.56045 5.30056 10.2688 5.96032 10.7567C6.62008 11.2446 7.43294 11.4797 8.25128 11.4192C9.06961 11.3588 9.83914 11.0069 10.4201 10.4275C10.9094 9.93994 11.2397 9.31582 11.3677 8.6371Z" fill="#D70C38"/>
</svg>
